<?xml version="1.0" encoding="UTF-8"?>
<!DOCTYPE svg PUBLIC "-//W3C//DTD SVG 1.1//EN" "http://www.w3.org/Graphics/SVG/1.1/DTD/svg11.dtd">
<svg xmlns="http://www.w3.org/2000/svg" version="1.1" width="462px" height="411px" style="shape-rendering:geometricPrecision; text-rendering:geometricPrecision; image-rendering:optimizeQuality; fill-rule:evenodd; clip-rule:evenodd" xmlns:xlink="http://www.w3.org/1999/xlink">
<g><path style="opacity:1" fill="#8b8b8b" d="M 253.5,111.5 C 249.5,107.5 245.5,107.5 241.5,111.5C 242.385,108.342 244.552,106.675 248,106.5C 250.991,106.995 252.824,108.661 253.5,111.5 Z"/></g>
<g><path style="opacity:1" fill="#292929" d="M 253.5,111.5 C 253.923,112.265 254.257,113.098 254.5,114C 245.972,134.559 238.139,155.392 231,176.5C 226.827,193.856 222.661,211.19 218.5,228.5C 223.108,229.267 227.442,228.267 231.5,225.5C 233.138,197.42 241.305,171.42 256,147.5C 258,140.833 260,134.167 262,127.5C 265,123.5 268,123.5 271,127.5C 271.667,129.167 271.667,130.833 271,132.5C 262.684,151.78 255.35,171.447 249,191.5C 246.385,206.439 244.218,221.439 242.5,236.5C 241.402,237.601 241.235,238.934 242,240.5C 243.802,239.211 244.969,237.544 245.5,235.5C 247.262,234.738 248.262,233.404 248.5,231.5C 248.833,230.5 249.5,229.833 250.5,229.5C 251.906,229.027 252.573,228.027 252.5,226.5C 252.833,225.5 253.5,224.833 254.5,224.5C 256.587,223.415 257.92,221.749 258.5,219.5C 262.45,212.887 266.783,206.554 271.5,200.5C 272.906,200.027 273.573,199.027 273.5,197.5C 276.29,194.408 279.624,193.742 283.5,195.5C 284.024,200.145 283.524,204.811 282,209.5C 279.238,216.792 275.905,223.792 272,230.5C 269.539,237.014 267.705,243.68 266.5,250.5C 265.362,253.304 265.195,256.304 266,259.5C 266.717,258.956 267.217,258.289 267.5,257.5C 267.932,256.29 268.599,255.29 269.5,254.5C 270.906,254.027 271.573,253.027 271.5,251.5C 279.79,235.919 287.79,220.253 295.5,204.5C 298.188,204.166 300.521,204.832 302.5,206.5C 302.666,211.844 302.499,217.177 302,222.5C 297.256,241.302 293.922,260.302 292,279.5C 296.927,268.746 300.76,257.746 303.5,246.5C 306.43,245.701 309.43,245.368 312.5,245.5C 313.5,245.833 314.167,246.5 314.5,247.5C 314.917,248.124 315.584,248.457 316.5,248.5C 323.344,246.659 330.011,244.659 336.5,242.5C 344.527,241.663 352.527,240.496 360.5,239C 377.655,238.085 394.655,237.252 411.5,236.5C 415.6,236.237 419.6,236.57 423.5,237.5C 424.833,238.833 424.833,240.167 423.5,241.5C 408.496,241.333 393.496,241.5 378.5,242C 375.635,242.183 372.969,242.683 370.5,243.5C 358.265,243.713 346.265,245.546 334.5,249C 333.944,249.383 333.611,249.883 333.5,250.5C 333.167,250.5 332.833,250.5 332.5,250.5C 326.923,250.803 321.923,252.47 317.5,255.5C 315.887,255.944 314.72,256.944 314,258.5C 308.07,276.346 300.57,293.346 291.5,309.5C 288.43,309.632 285.43,309.299 282.5,308.5C 281.861,301.238 282.028,293.905 283,286.5C 285.719,268.856 288.219,251.189 290.5,233.5C 291.598,232.399 291.765,231.066 291,229.5C 290.487,230.527 289.987,231.527 289.5,232.5C 281.665,250.166 273.332,267.5 264.5,284.5C 261.549,284.713 258.882,284.046 256.5,282.5C 256.421,268.188 257.421,253.855 259.5,239.5C 260.573,238.749 260.74,237.749 260,236.5C 259.283,237.044 258.783,237.711 258.5,238.5C 250.537,252.757 240.87,265.757 229.5,277.5C 227.658,277.723 225.825,278.057 224,278.5C 222.061,278.046 220.228,277.379 218.5,276.5C 217.463,274.262 217.297,271.929 218,269.5C 221.809,259.239 225.309,248.906 228.5,238.5C 228.265,237.903 227.765,237.57 227,237.5C 224.536,238.161 222.036,238.661 219.5,239C 217.563,239.122 216.23,239.955 215.5,241.5C 214.142,249.266 212.309,256.932 210,264.5C 204.869,277.227 200.536,290.227 197,303.5C 195.837,310.103 195.17,316.77 195,323.5C 194.617,324.056 194.117,324.389 193.5,324.5C 190.43,324.632 187.43,324.299 184.5,323.5C 183.382,311.983 183.549,300.316 185,288.5C 191.12,250.041 194.953,211.374 196.5,172.5C 196.666,166.824 196.499,161.157 196,155.5C 195.59,156.901 195.09,158.234 194.5,159.5C 191.015,169.812 187.515,180.145 184,190.5C 180.469,206.355 177.802,222.355 176,238.5C 173.704,248.088 170.037,257.088 165,265.5C 161.258,269.747 157.092,273.414 152.5,276.5C 150.326,276.75 148.659,277.75 147.5,279.5C 147.167,279.5 146.833,279.5 146.5,279.5C 137.467,279.716 128.467,279.383 119.5,278.5C 118.508,278.672 117.842,278.338 117.5,277.5C 117.027,276.094 116.027,275.427 114.5,275.5C 114.027,274.094 113.027,273.427 111.5,273.5C 109.526,271.572 108.026,269.239 107,266.5C 106.333,257.833 106.333,249.167 107,240.5C 107.278,239.584 107.778,238.918 108.5,238.5C 110.764,237.781 113.097,237.448 115.5,237.5C 116.966,238.347 117.8,239.68 118,241.5C 118.131,249.297 118.964,256.964 120.5,264.5C 120.918,265.222 121.584,265.722 122.5,266C 125.5,266.167 128.5,266.333 131.5,266.5C 135.797,266.722 139.797,266.055 143.5,264.5C 152.74,258.731 158.574,250.398 161,239.5C 165.46,220.199 169.794,200.865 174,181.5C 181.437,160.399 187.604,139.065 192.5,117.5C 193.833,116.833 194.833,115.833 195.5,114.5C 199.003,114.129 202.003,115.129 204.5,117.5C 205.161,119.134 205.494,120.967 205.5,123C 203.041,137.64 203.041,152.306 205.5,167C 205.007,198.11 201.84,228.943 196,259.5C 195.484,268.856 195.15,278.189 195,287.5C 201.203,272.224 206.203,256.558 210,240.5C 213.534,215.431 217.534,190.431 222,165.5C 228.819,147.538 235.319,129.538 241.5,111.5C 245.5,107.5 249.5,107.5 253.5,111.5 Z"/></g>
<g><path style="opacity:1" fill="#929292" d="M 195.5,114.5 C 197.288,113.378 199.288,113.211 201.5,114C 203.426,114.422 204.426,115.589 204.5,117.5C 202.003,115.129 199.003,114.129 195.5,114.5 Z"/></g>
<g><path style="opacity:1" fill="#8c8c8c" d="M 195.5,114.5 C 194.833,115.833 193.833,116.833 192.5,117.5C 192.5,115.5 193.5,114.5 195.5,114.5 Z"/></g>
<g><path style="opacity:1" fill="#bdbdbd" d="M 196.5,172.5 C 195.833,168.167 195.167,163.833 194.5,159.5C 195.09,158.234 195.59,156.901 196,155.5C 196.499,161.157 196.666,166.824 196.5,172.5 Z"/></g>
<g><path style="opacity:1" fill="#787878" d="M 283.5,195.5 C 279.624,193.742 276.29,194.408 273.5,197.5C 275.847,191.746 279.18,191.079 283.5,195.5 Z"/></g>
<g><path style="opacity:1" fill="#828282" d="M 273.5,197.5 C 273.573,199.027 272.906,200.027 271.5,200.5C 271.427,198.973 272.094,197.973 273.5,197.5 Z"/></g>
<g><path style="opacity:1" fill="#8f8f8f" d="M 302.5,206.5 C 300.521,204.832 298.188,204.166 295.5,204.5C 297.139,202.058 299.139,201.891 301.5,204C 302.252,204.671 302.586,205.504 302.5,206.5 Z"/></g>
<g><path style="opacity:1" fill="#7b7b7b" d="M 258.5,219.5 C 257.92,221.749 256.587,223.415 254.5,224.5C 255.08,222.251 256.413,220.585 258.5,219.5 Z"/></g>
<g><path style="opacity:1" fill="#868686" d="M 231.5,225.5 C 227.442,228.267 223.108,229.267 218.5,228.5C 222.793,227.343 227.127,226.343 231.5,225.5 Z"/></g>
<g><path style="opacity:1" fill="#838383" d="M 252.5,226.5 C 252.573,228.027 251.906,229.027 250.5,229.5C 250.427,227.973 251.094,226.973 252.5,226.5 Z"/></g>
<g><path style="opacity:1" fill="#9c9c9c" d="M 290.5,233.5 C 290.5,232.833 290.167,232.5 289.5,232.5C 289.987,231.527 290.487,230.527 291,229.5C 291.765,231.066 291.598,232.399 290.5,233.5 Z"/></g>
<g><path style="opacity:1" fill="#7e7e7e" d="M 248.5,231.5 C 248.262,233.404 247.262,234.738 245.5,235.5C 245.738,233.596 246.738,232.262 248.5,231.5 Z"/></g>
<g><path style="opacity:1" fill="#b3b3b3" d="M 387.5,236.5 C 393.324,235.834 399.324,235.5 405.5,235.5C 411.872,235.504 417.872,236.171 423.5,237.5C 419.6,236.57 415.6,236.237 411.5,236.5C 403.5,236.5 395.5,236.5 387.5,236.5 Z"/></g>
<g><path style="opacity:1" fill="#868686" d="M 115.5,237.5 C 113.097,237.448 110.764,237.781 108.5,238.5C 109.312,237.007 110.645,236.34 112.5,236.5C 113.726,236.52 114.726,236.853 115.5,237.5 Z"/></g>
<g><path style="opacity:1" fill="#989898" d="M 245.5,235.5 C 244.969,237.544 243.802,239.211 242,240.5C 241.235,238.934 241.402,237.601 242.5,236.5C 242.435,236.938 242.601,237.272 243,237.5C 243.708,236.619 244.542,235.953 245.5,235.5 Z"/></g>
<g><path style="opacity:1" fill="#a0a0a0" d="M 259.5,239.5 C 259.5,238.833 259.167,238.5 258.5,238.5C 258.783,237.711 259.283,237.044 260,236.5C 260.74,237.749 260.573,238.749 259.5,239.5 Z"/></g>
<g><path style="opacity:1" fill="#9d9d9d" d="M 228.5,238.5 C 224.116,239.376 219.783,240.376 215.5,241.5C 216.23,239.955 217.563,239.122 219.5,239C 222.036,238.661 224.536,238.161 227,237.5C 227.765,237.57 228.265,237.903 228.5,238.5 Z"/></g>
<g><path style="opacity:1" fill="#747474" d="M 387.5,236.5 C 395.5,236.5 403.5,236.5 411.5,236.5C 394.655,237.252 377.655,238.085 360.5,239C 352.527,240.496 344.527,241.663 336.5,242.5C 353.068,237.972 370.068,235.972 387.5,236.5 Z"/></g>
<g><path style="opacity:1" fill="#8c8c8c" d="M 423.5,241.5 C 422.739,242.391 421.739,243.058 420.5,243.5C 403.87,242.467 387.203,242.467 370.5,243.5C 372.969,242.683 375.635,242.183 378.5,242C 393.496,241.5 408.496,241.333 423.5,241.5 Z"/></g>
<g><path style="opacity:1" fill="#747474" d="M 312.5,245.5 C 309.43,245.368 306.43,245.701 303.5,246.5C 306.122,242.91 309.122,242.576 312.5,245.5 Z"/></g>
<g><path style="opacity:1" fill="#969696" d="M 370.5,243.5 C 358.173,245.164 345.84,247.497 333.5,250.5C 333.611,249.883 333.944,249.383 334.5,249C 346.265,245.546 358.265,243.713 370.5,243.5 Z"/></g>
<g><path style="opacity:1" fill="#8d8d8d" d="M 336.5,242.5 C 330.011,244.659 323.344,246.659 316.5,248.5C 315.584,248.457 314.917,248.124 314.5,247.5C 321.738,245.421 329.072,243.754 336.5,242.5 Z"/></g>
<g><path style="opacity:1" fill="#a1a1a1" d="M 332.5,250.5 C 327.659,252.336 322.659,254.003 317.5,255.5C 321.923,252.47 326.923,250.803 332.5,250.5 Z"/></g>
<g><path style="opacity:1" fill="#828282" d="M 271.5,251.5 C 271.573,253.027 270.906,254.027 269.5,254.5C 269.427,252.973 270.094,251.973 271.5,251.5 Z"/></g>
<g><path style="opacity:1" fill="#a8a8a8" d="M 266.5,250.5 C 266.198,253.059 266.532,255.393 267.5,257.5C 267.217,258.289 266.717,258.956 266,259.5C 265.195,256.304 265.362,253.304 266.5,250.5 Z"/></g>
<g><path style="opacity:1" fill="#8b8b8b" d="M 120.5,264.5 C 128.158,265.732 135.825,265.732 143.5,264.5C 139.797,266.055 135.797,266.722 131.5,266.5C 128.5,266.333 125.5,266.167 122.5,266C 121.584,265.722 120.918,265.222 120.5,264.5 Z"/></g>
<g><path style="opacity:1" fill="#868686" d="M 111.5,273.5 C 113.027,273.427 114.027,274.094 114.5,275.5C 112.973,275.573 111.973,274.906 111.5,273.5 Z"/></g>
<g><path style="opacity:1" fill="#7e7e7e" d="M 114.5,275.5 C 116.027,275.427 117.027,276.094 117.5,277.5C 115.973,277.573 114.973,276.906 114.5,275.5 Z"/></g>
<g><path style="opacity:1" fill="#979797" d="M 152.5,276.5 C 151.341,278.25 149.674,279.25 147.5,279.5C 148.659,277.75 150.326,276.75 152.5,276.5 Z"/></g>
<g><path style="opacity:1" fill="#8f8f8f" d="M 218.5,276.5 C 220.228,277.379 222.061,278.046 224,278.5C 225.825,278.057 227.658,277.723 229.5,277.5C 226.863,279.427 223.863,279.927 220.5,279C 219.619,278.292 218.953,277.458 218.5,276.5 Z"/></g>
<g><path style="opacity:1" fill="#959595" d="M 119.5,278.5 C 128.467,279.383 137.467,279.716 146.5,279.5C 138.677,280.656 130.677,280.823 122.5,280C 121.263,279.768 120.263,279.268 119.5,278.5 Z"/></g>
<g><path style="opacity:1" fill="#909090" d="M 256.5,282.5 C 258.882,284.046 261.549,284.713 264.5,284.5C 261.282,286.184 258.615,285.517 256.5,282.5 Z"/></g>
<g><path style="opacity:1" fill="#838383" d="M 282.5,308.5 C 285.43,309.299 288.43,309.632 291.5,309.5C 288.214,312.267 285.214,311.934 282.5,308.5 Z"/></g>
<g><path style="opacity:1" fill="#747474" d="M 184.5,323.5 C 187.43,324.299 190.43,324.632 193.5,324.5C 192.688,325.993 191.355,326.66 189.5,326.5C 187.058,326.714 185.392,325.714 184.5,323.5 Z"/></g>
</svg>
