<?xml version="1.0" encoding="UTF-8"?>
<!DOCTYPE svg PUBLIC "-//W3C//DTD SVG 1.1//EN" "http://www.w3.org/Graphics/SVG/1.1/DTD/svg11.dtd">
<svg xmlns="http://www.w3.org/2000/svg" version="1.1" width="462px" height="411px" style="shape-rendering:geometricPrecision; text-rendering:geometricPrecision; image-rendering:optimizeQuality; fill-rule:evenodd; clip-rule:evenodd" xmlns:xlink="http://www.w3.org/1999/xlink">
<g><path style="opacity:0.376" fill="#fdfdfd" d="M 223.5,204.5 C 225.091,194.715 227.257,185.049 230,175.5C 236.778,155.946 244.111,136.613 252,117.5C 253.5,111 251,108.5 244.5,110C 241.53,116.417 238.864,122.917 236.5,129.5C 237.75,122.248 240.084,115.415 243.5,109C 249.239,106.536 252.906,108.369 254.5,114.5C 246.511,133.966 239.011,153.633 232,173.5C 229.087,183.942 226.254,194.276 223.5,204.5 Z"/></g>
<g><path style="opacity:0.999" fill="#e1e1e1" d="M 223.5,204.5 C 220.884,211.535 218.884,218.869 217.5,226.5C 217.543,227.416 217.876,228.083 218.5,228.5C 219.167,228.5 219.833,228.5 220.5,228.5C 220.082,229.222 219.416,229.722 218.5,230C 223.313,230.172 227.813,229.005 232,226.5C 234.331,214.178 236.664,201.845 239,189.5C 241.188,183.135 243.354,176.802 245.5,170.5C 254.004,157.68 260.004,143.68 263.5,128.5C 265.227,126.294 267.227,125.961 269.5,127.5C 269.5,129.833 269.5,132.167 269.5,134.5C 268.069,135.78 267.402,137.447 267.5,139.5C 266.069,140.78 265.402,142.447 265.5,144.5C 265.737,145.791 265.404,146.791 264.5,147.5C 262.275,151.623 260.275,155.956 258.5,160.5C 258.624,161.107 258.957,161.44 259.5,161.5C 259.011,162.995 258.345,164.329 257.5,165.5C 253.141,174.735 249.641,184.402 247,194.5C 244.768,209.158 242.601,223.824 240.5,238.5C 240.833,239.5 241.167,240.5 241.5,241.5C 254.476,227.355 266.142,212.189 276.5,196C 277.416,195.626 278.25,195.126 279,194.5C 279.75,195.126 280.584,195.626 281.5,196C 282.117,198.277 282.784,200.444 283.5,202.5C 283.5,203.167 283.5,203.833 283.5,204.5C 282.883,204.389 282.383,204.056 282,203.5C 280.051,211.515 277.218,219.182 273.5,226.5C 273.34,228.153 272.674,229.486 271.5,230.5C 267.553,238.782 265.22,247.615 264.5,257C 264.454,258.728 264.954,260.228 266,261.5C 277.898,244.376 287.731,226.043 295.5,206.5C 297.353,205.24 299.186,205.24 301,206.5C 301.667,211.167 301.667,215.833 301,220.5C 295.984,240.594 292.484,260.927 290.5,281.5C 291.5,281.5 292.5,281.5 293.5,281.5C 298.076,270.871 301.576,259.871 304,248.5C 306.361,245.558 309.194,244.891 312.5,246.5C 312.559,248.722 313.725,249.722 316,249.5C 320.494,248.834 324.661,247.501 328.5,245.5C 359.496,239.249 390.829,236.582 422.5,237.5C 422.5,238.833 422.5,240.167 422.5,241.5C 412.5,241.5 402.5,241.5 392.5,241.5C 389.119,241.46 385.786,241.793 382.5,242.5C 359.496,243.001 337.163,247.168 315.5,255C 314.333,255.5 313.5,256.333 313,257.5C 310.765,264.96 308.265,272.294 305.5,279.5C 301.24,289.354 296.407,299.02 291,308.5C 286.777,311.147 283.944,309.98 282.5,305C 285.172,280.624 288.506,256.291 292.5,232C 292.2,229.976 291.367,229.476 290,230.5C 286.6,236.629 283.766,242.963 281.5,249.5C 279.659,251.849 278.326,254.515 277.5,257.5C 276.674,260.485 275.341,263.151 273.5,265.5C 270.17,270.827 267.337,276.494 265,282.5C 262.667,285.167 260.333,285.167 258,282.5C 257.918,267.573 259.084,252.739 261.5,238C 260.207,234.758 259.207,234.925 258.5,238.5C 257.094,238.973 256.427,239.973 256.5,241.5C 255.094,241.973 254.427,242.973 254.5,244.5C 250.257,249.983 246.257,255.65 242.5,261.5C 240.086,262.911 238.419,264.911 237.5,267.5C 235.086,268.911 233.419,270.911 232.5,273.5C 232.5,274.167 232.167,274.5 231.5,274.5C 229.645,276.693 227.311,278.026 224.5,278.5C 221.103,278.272 219.103,276.439 218.5,273C 223.039,261.724 226.539,250.224 229,238.5C 224.242,237.846 219.575,238.513 215,240.5C 209.673,261.48 203.34,282.146 196,302.5C 194.837,309.103 194.17,315.77 194,322.5C 191.789,325.594 188.956,326.261 185.5,324.5C 184.704,314.201 184.871,303.868 186,293.5C 190.652,261.928 194.318,230.262 197,198.5C 197.5,184.171 197.667,169.837 197.5,155.5C 196.5,155.5 195.5,155.5 194.5,155.5C 190.823,166.849 187.156,178.182 183.5,189.5C 182.033,193.625 180.867,197.958 180,202.5C 177.927,215.493 175.927,228.493 174,241.5C 172.924,245.559 171.757,249.559 170.5,253.5C 168.326,256.515 166.659,259.849 165.5,263.5C 161.036,267.463 156.702,271.63 152.5,276C 150.283,277.275 147.949,278.275 145.5,279C 114.089,284.257 101.922,271.424 109,240.5C 111.269,237.946 113.602,237.946 116,240.5C 117.096,248.124 117.762,255.791 118,263.5C 119.008,265.259 120.508,266.426 122.5,267C 134.694,269.93 145.194,267.097 154,258.5C 158.141,251.214 161.475,243.547 164,235.5C 167.347,218.109 171.014,200.776 175,183.5C 182.521,161.571 189.021,139.405 194.5,117C 198.546,114.636 201.713,115.47 204,119.5C 203.129,127.249 202.629,135.083 202.5,143C 203.202,156.492 203.535,169.992 203.5,183.5C 203.577,187.215 203.244,190.881 202.5,194.5C 201.791,215.381 199.291,236.048 195,256.5C 194.039,267.492 193.706,278.492 194,289.5C 194.667,290.833 195.333,290.833 196,289.5C 202.203,274.224 207.203,258.558 211,242.5C 214.927,217.492 218.927,192.492 223,167.5C 226.621,154.468 231.121,141.801 236.5,129.5C 238.864,122.917 241.53,116.417 244.5,110C 251,108.5 253.5,111 252,117.5C 244.111,136.613 236.778,155.946 230,175.5C 227.257,185.049 225.091,194.715 223.5,204.5 Z"/></g>
<g><path style="opacity:0.365" fill="#fdfdfd" d="M 269.5,127.5 C 272.034,129.75 272.034,132.084 269.5,134.5C 269.5,132.167 269.5,129.833 269.5,127.5 Z"/></g>
<g><path style="opacity:0.055" fill="#f5f5f5" d="M 269.5,134.5 C 269.598,136.553 268.931,138.22 267.5,139.5C 267.402,137.447 268.069,135.78 269.5,134.5 Z"/></g>
<g><path style="opacity:0.379" fill="#fdfdfd" d="M 267.5,139.5 C 267.598,141.553 266.931,143.22 265.5,144.5C 265.402,142.447 266.069,140.78 267.5,139.5 Z"/></g>
<g><path style="opacity:0.41" fill="#fefefe" d="M 264.5,147.5 C 263.395,152.375 261.728,157.042 259.5,161.5C 258.957,161.44 258.624,161.107 258.5,160.5C 260.275,155.956 262.275,151.623 264.5,147.5 Z"/></g>
<g><path style="opacity:0.402" fill="#fefefe" d="M 269.5,127.5 C 267.227,125.961 265.227,126.294 263.5,128.5C 260.004,143.68 254.004,157.68 245.5,170.5C 247.847,163.472 251.014,156.805 255,150.5C 257.346,142.78 259.846,135.113 262.5,127.5C 264.998,124.932 267.331,124.932 269.5,127.5 Z"/></g>
<g><path style="opacity:0.38" fill="#fefefe" d="M 204.5,183.5 C 204.167,183.5 203.833,183.5 203.5,183.5C 203.535,169.992 203.202,156.492 202.5,143C 202.629,135.083 203.129,127.249 204,119.5C 201.713,115.47 198.546,114.636 194.5,117C 189.021,139.405 182.521,161.571 175,183.5C 171.014,200.776 167.347,218.109 164,235.5C 161.475,243.547 158.141,251.214 154,258.5C 145.194,267.097 134.694,269.93 122.5,267C 120.508,266.426 119.008,265.259 118,263.5C 117.762,255.791 117.096,248.124 116,240.5C 113.602,237.946 111.269,237.946 109,240.5C 101.922,271.424 114.089,284.257 145.5,279C 147.949,278.275 150.283,277.275 152.5,276C 156.702,271.63 161.036,267.463 165.5,263.5C 164.081,266.1 162.415,268.6 160.5,271C 156.696,274.81 152.363,277.81 147.5,280C 113.655,286.49 100.489,272.99 108,239.5C 112.67,235.386 116.003,236.386 118,242.5C 118.333,248.5 118.667,254.5 119,260.5C 119.199,262.402 120.033,263.902 121.5,265C 134.526,269.002 145.36,265.835 154,255.5C 158.315,247.554 161.648,239.221 164,230.5C 166.857,214.07 170.191,197.737 174,181.5C 181.711,160.987 187.711,139.987 192,118.5C 192.465,117.069 193.299,115.903 194.5,115C 197.167,114.333 199.833,114.333 202.5,115C 203.701,115.903 204.535,117.069 205,118.5C 204.919,126.34 204.419,134.173 203.5,142C 204.989,155.836 205.322,169.67 204.5,183.5 Z"/></g>
<g><path style="opacity:0.282" fill="#f3f3f3" d="M 203.5,183.5 C 203.833,183.5 204.167,183.5 204.5,183.5C 204.5,187.167 204.5,190.833 204.5,194.5C 203.833,194.5 203.167,194.5 202.5,194.5C 203.244,190.881 203.577,187.215 203.5,183.5 Z"/></g>
<g><path style="opacity:0.481" fill="#fcfcfc" d="M 185.5,324.5 C 184.883,324.389 184.383,324.056 184,323.5C 183.492,312.482 183.825,301.482 185,290.5C 191.984,246.747 195.651,202.747 196,158.5C 191.905,168.973 187.738,179.306 183.5,189.5C 187.156,178.182 190.823,166.849 194.5,155.5C 195.5,155.5 196.5,155.5 197.5,155.5C 197.667,169.837 197.5,184.171 197,198.5C 194.318,230.262 190.652,261.928 186,293.5C 184.871,303.868 184.704,314.201 185.5,324.5 Z"/></g>
<g><path style="opacity:0.457" fill="#fdfdfd" d="M 245.5,170.5 C 243.354,176.802 241.188,183.135 239,189.5C 236.664,201.845 234.331,214.178 232,226.5C 227.813,229.005 223.313,230.172 218.5,230C 219.416,229.722 220.082,229.222 220.5,228.5C 224.261,228.352 227.761,227.352 231,225.5C 233.538,211.808 236.205,198.141 239,184.5C 240.942,179.623 243.108,174.956 245.5,170.5 Z"/></g>
<g><path style="opacity:0.449" fill="#fdfdfd" d="M 183.5,189.5 C 180.489,205.741 177.989,222.075 176,238.5C 175.22,243.998 173.387,248.998 170.5,253.5C 171.757,249.559 172.924,245.559 174,241.5C 175.927,228.493 177.927,215.493 180,202.5C 180.867,197.958 182.033,193.625 183.5,189.5 Z"/></g>
<g><path style="opacity:0.395" fill="#fdfdfd" d="M 236.5,129.5 C 231.121,141.801 226.621,154.468 223,167.5C 218.927,192.492 214.927,217.492 211,242.5C 207.203,258.558 202.203,274.224 196,289.5C 195.333,290.833 194.667,290.833 194,289.5C 193.706,278.492 194.039,267.492 195,256.5C 199.291,236.048 201.791,215.381 202.5,194.5C 203.167,194.5 203.833,194.5 204.5,194.5C 202.983,216.332 200.15,237.999 196,259.5C 195.333,268.167 195.333,276.833 196,285.5C 202.057,270.943 206.723,255.943 210,240.5C 213.72,215.46 217.72,190.46 222,165.5C 225.39,152.812 230.223,140.812 236.5,129.5 Z"/></g>
<g><path style="opacity:0.328" fill="#fefefe" d="M 283.5,204.5 C 281.502,212.518 278.168,219.852 273.5,226.5C 277.218,219.182 280.051,211.515 282,203.5C 282.383,204.056 282.883,204.389 283.5,204.5 Z"/></g>
<g><path style="opacity:0.502" fill="#fcfcfc" d="M 223.5,204.5 C 221.833,212.503 220.166,220.503 218.5,228.5C 217.876,228.083 217.543,227.416 217.5,226.5C 218.884,218.869 220.884,211.535 223.5,204.5 Z"/></g>
<g><path style="opacity:0.378" fill="#fdfdfd" d="M 257.5,165.5 C 254.041,175.713 250.874,186.047 248,196.5C 245.817,210.48 244.151,224.48 243,238.5C 255.018,224.294 266.184,209.46 276.5,194C 283.09,193.419 285.423,196.252 283.5,202.5C 282.784,200.444 282.117,198.277 281.5,196C 280.584,195.626 279.75,195.126 279,194.5C 278.25,195.126 277.416,195.626 276.5,196C 266.142,212.189 254.476,227.355 241.5,241.5C 241.167,240.5 240.833,239.5 240.5,238.5C 242.601,223.824 244.768,209.158 247,194.5C 249.641,184.402 253.141,174.735 257.5,165.5 Z"/></g>
<g><path style="opacity:0.357" fill="#fefefe" d="M 389.5,243.5 C 390.5,242.833 391.5,242.167 392.5,241.5C 402.5,241.5 412.5,241.5 422.5,241.5C 422.5,240.167 422.5,238.833 422.5,237.5C 390.829,236.582 359.496,239.249 328.5,245.5C 339.865,242.192 351.532,239.692 363.5,238C 381.332,237.066 399.165,236.232 417,235.5C 420.875,234.849 423.375,236.349 424.5,240C 424.241,241.261 423.574,242.261 422.5,243C 411.505,243.5 400.505,243.667 389.5,243.5 Z"/></g>
<g><path style="opacity:0.405" fill="#fefffe" d="M 258.5,238.5 C 258.573,240.027 257.906,241.027 256.5,241.5C 256.427,239.973 257.094,238.973 258.5,238.5 Z"/></g>
<g><path style="opacity:0.356" fill="#fefffe" d="M 256.5,241.5 C 256.573,243.027 255.906,244.027 254.5,244.5C 254.427,242.973 255.094,241.973 256.5,241.5 Z"/></g>
<g><path style="opacity:0.18" fill="#f3f3f3" d="M 392.5,241.5 C 391.5,242.167 390.5,242.833 389.5,243.5C 387.167,243.5 384.833,243.5 382.5,243.5C 382.5,243.167 382.5,242.833 382.5,242.5C 385.786,241.793 389.119,241.46 392.5,241.5 Z"/></g>
<g><path style="opacity:0.487" fill="#fdfdfd" d="M 328.5,245.5 C 324.661,247.501 320.494,248.834 316,249.5C 313.725,249.722 312.559,248.722 312.5,246.5C 313.531,247.355 314.697,248.022 316,248.5C 320.11,247.184 324.276,246.184 328.5,245.5 Z"/></g>
<g><path style="opacity:0.39" fill="#fcfcfc" d="M 382.5,242.5 C 382.5,242.833 382.5,243.167 382.5,243.5C 359.939,244.645 337.939,248.812 316.5,256C 315.333,256.5 314.5,257.333 314,258.5C 312.225,266.032 309.392,273.032 305.5,279.5C 308.265,272.294 310.765,264.96 313,257.5C 313.5,256.333 314.333,255.5 315.5,255C 337.163,247.168 359.496,243.001 382.5,242.5 Z"/></g>
<g><path style="opacity:0.376" fill="#fefefe" d="M 254.5,244.5 C 251.727,251.052 247.727,256.719 242.5,261.5C 246.257,255.65 250.257,249.983 254.5,244.5 Z"/></g>
<g><path style="opacity:0.405" fill="#fdfdfd" d="M 170.5,253.5 C 169.873,257.42 168.207,260.753 165.5,263.5C 166.659,259.849 168.326,256.515 170.5,253.5 Z"/></g>
<g><path style="opacity:0.431" fill="#fdfdfd" d="M 231.5,274.5 C 227.918,281.204 223.418,281.87 218,276.5C 217.333,274.167 217.333,271.833 218,269.5C 222.246,259.438 225.246,249.105 227,238.5C 223.333,239.5 219.667,240.5 216,241.5C 214.539,248.217 212.872,254.884 211,261.5C 205.399,276.636 200.399,291.969 196,307.5C 195.667,312.833 195.333,318.167 195,323.5C 193.839,325.665 192.006,326.665 189.5,326.5C 187.645,326.66 186.312,325.993 185.5,324.5C 188.956,326.261 191.789,325.594 194,322.5C 194.17,315.77 194.837,309.103 196,302.5C 203.34,282.146 209.673,261.48 215,240.5C 219.575,238.513 224.242,237.846 229,238.5C 226.539,250.224 223.039,261.724 218.5,273C 219.103,276.439 221.103,278.272 224.5,278.5C 227.311,278.026 229.645,276.693 231.5,274.5 Z"/></g>
<g><path style="opacity:0.458" fill="#fdfdfd" d="M 273.5,265.5 C 271.295,271.583 268.795,277.583 266,283.5C 260.337,287.135 256.837,285.635 255.5,279C 256.558,266.305 257.891,253.638 259.5,241C 259.472,239.93 259.139,239.097 258.5,238.5C 259.207,234.925 260.207,234.758 261.5,238C 259.084,252.739 257.918,267.573 258,282.5C 260.333,285.167 262.667,285.167 265,282.5C 267.337,276.494 270.17,270.827 273.5,265.5 Z"/></g>
<g><path style="opacity:0.455" fill="#fdfdfd" d="M 312.5,246.5 C 309.194,244.891 306.361,245.558 304,248.5C 301.576,259.871 298.076,270.871 293.5,281.5C 292.5,281.5 291.5,281.5 290.5,281.5C 292.484,260.927 295.984,240.594 301,220.5C 301.667,215.833 301.667,211.167 301,206.5C 299.186,205.24 297.353,205.24 295.5,206.5C 287.731,226.043 277.898,244.376 266,261.5C 264.954,260.228 264.454,258.728 264.5,257C 265.22,247.615 267.553,238.782 271.5,230.5C 269.7,236.404 268.2,242.404 267,248.5C 266.333,251.833 266.333,255.167 267,258.5C 277.728,241.713 286.894,224.047 294.5,205.5C 296.956,202.92 299.456,202.92 302,205.5C 302.667,211.167 302.667,216.833 302,222.5C 297.256,241.302 293.922,260.302 292,279.5C 297.064,269.308 300.731,258.641 303,247.5C 306.008,244.106 309.174,243.773 312.5,246.5 Z"/></g>
<g><path style="opacity:0.315" fill="#fefffe" d="M 281.5,249.5 C 281.206,252.754 279.873,255.421 277.5,257.5C 278.326,254.515 279.659,251.849 281.5,249.5 Z"/></g>
<g><path style="opacity:0.371" fill="#fefefe" d="M 242.5,261.5 C 241.581,264.089 239.914,266.089 237.5,267.5C 238.419,264.911 240.086,262.911 242.5,261.5 Z"/></g>
<g><path style="opacity:0.369" fill="#fefefe" d="M 237.5,267.5 C 236.581,270.089 234.914,272.089 232.5,273.5C 233.419,270.911 235.086,268.911 237.5,267.5 Z"/></g>
<g><path style="opacity:0.449" fill="#fdfdfd" d="M 305.5,279.5 C 302.373,290.09 297.873,300.09 292,309.5C 285.527,312.845 282.027,310.845 281.5,303.5C 283.739,281.063 286.739,258.73 290.5,236.5C 290.333,235.5 290.167,234.5 290,233.5C 287.392,239.053 284.559,244.387 281.5,249.5C 283.766,242.963 286.6,236.629 290,230.5C 291.367,229.476 292.2,229.976 292.5,232C 288.506,256.291 285.172,280.624 282.5,305C 283.944,309.98 286.777,311.147 291,308.5C 296.407,299.02 301.24,289.354 305.5,279.5 Z"/></g>
</svg>
